<?xml version="1.0" standalone="no"?>
<!DOCTYPE svg PUBLIC "-//W3C//DTD SVG 20010904//EN"
 "http://www.w3.org/TR/2001/REC-SVG-20010904/DTD/svg10.dtd">
<svg version="1.0" xmlns="http://www.w3.org/2000/svg"
 width="820.000000pt" height="820.000000pt" viewBox="0 0 820.000000 820.000000"
 preserveAspectRatio="xMidYMid meet">
<metadata>
Created by potrace 1.14, written by Peter Selinger 2001-2017
</metadata>
<g transform="translate(0.000000,820.000000) scale(0.100000,-0.100000)"
fill="#000000" stroke="none">
<path d="M3637 8038 c-6 -4 -15 -5 -19 -2 -9 6 -128 -14 -143 -24 -5 -4 -18
-8 -28 -9 -31 -5 -155 -71 -203 -107 -98 -75 -156 -138 -208 -228 -15 -27 -31
-50 -35 -53 -4 -2 -30 3 -57 12 -81 25 -190 40 -272 36 -105 -6 -124 -6 -221
-1 -139 8 -297 -29 -401 -94 -25 -15 -54 -32 -65 -37 -19 -9 -147 -131 -170
-162 -106 -142 -159 -310 -159 -496 1 -40 -2 -73 -5 -74 -10 -1 -103 0 -186 2
-233 7 -435 -71 -596 -231 -44 -44 -99 -115 -99 -128 0 -6 -4 -12 -8 -14 -9
-3 -62 -106 -66 -128 -2 -8 -6 -22 -9 -30 -13 -33 -26 -94 -21 -101 2 -4 0
-10 -5 -13 -13 -8 -6 -240 9 -296 6 -25 13 -52 15 -60 5 -23 43 -110 66 -152
11 -21 18 -39 15 -39 -3 -1 -9 -2 -13 -3 -5 -1 -25 -5 -47 -10 -21 -4 -46 -11
-55 -16 -9 -4 -43 -18 -76 -31 -100 -38 -175 -88 -261 -173 -67 -67 -154 -181
-154 -202 0 -3 -10 -26 -21 -52 -12 -25 -22 -51 -24 -57 -1 -5 -7 -29 -14 -53
-6 -23 -9 -47 -6 -52 3 -5 1 -11 -3 -14 -5 -3 -9 -28 -8 -56 1 -27 -3 -52 -9
-54 -7 -3 -6 -5 0 -5 6 -1 10 -18 8 -38 -1 -32 18 -151 31 -188 23 -69 66
-154 108 -215 39 -57 131 -160 143 -160 2 0 18 -13 34 -29 l29 -28 -36 -22
c-45 -26 -93 -70 -153 -141 -128 -154 -192 -330 -192 -535 0 -136 67 -329 151
-434 100 -126 217 -213 362 -268 59 -23 110 -37 123 -35 13 3 8 -19 -11 -46
-10 -15 -26 -45 -36 -67 -9 -22 -21 -47 -25 -55 -7 -13 -17 -49 -26 -90 -1 -3
-4 -14 -7 -25 -8 -25 -21 -131 -20 -165 1 -54 10 -156 16 -180 3 -14 8 -34 10
-45 8 -40 45 -125 82 -192 42 -75 178 -219 234 -248 19 -10 37 -21 40 -24 7
-10 88 -46 135 -61 22 -7 50 -16 62 -21 35 -13 241 -29 256 -19 1 1 30 2 63 4
l62 2 -1 -101 c0 -55 3 -118 7 -140 4 -22 9 -49 10 -60 6 -39 55 -173 82 -221
48 -89 177 -238 217 -253 6 -2 19 -12 29 -21 10 -9 51 -33 90 -52 118 -58 224
-82 348 -78 78 2 162 2 250 0 76 -2 132 5 214 24 55 13 59 13 63 -5 3 -10 9
-19 13 -19 5 0 12 -10 16 -22 20 -64 132 -198 219 -263 22 -17 42 -32 45 -35
3 -3 32 -20 65 -37 127 -66 244 -93 379 -87 123 5 125 5 221 0 75 -4 130 1
220 18 6 1 15 4 20 7 6 4 24 9 40 13 41 10 175 77 175 88 0 4 6 8 13 8 11 0
34 19 114 93 31 29 33 29 57 13 88 -57 215 -110 293 -122 21 -3 49 -7 63 -10
14 -3 61 -4 105 -2 140 4 230 3 240 -1 25 -12 194 12 269 37 157 53 320 186
405 330 41 69 101 218 101 254 0 14 13 16 88 15 48 0 116 1 152 2 36 1 101 1
145 -1 69 -1 141 4 195 15 45 10 107 30 118 39 6 6 12 8 12 5 0 -6 48 18 117
59 18 10 33 22 33 27 0 4 6 7 14 7 21 0 152 144 189 208 35 61 76 151 83 186
37 164 38 299 4 427 -11 39 -5 69 14 70 107 5 185 15 220 28 11 5 24 9 29 10
4 0 8 1 10 2 1 0 9 2 18 4 30 5 151 65 203 100 96 63 190 166 240 259 14 27
30 54 35 60 4 6 11 20 14 31 44 153 50 189 50 290 0 86 -16 183 -42 250 -19
51 -95 195 -103 195 -4 0 -8 6 -8 13 0 6 -14 26 -30 44 -17 18 -30 36 -30 40
0 4 21 18 48 30 103 48 217 138 302 238 66 78 144 244 156 330 2 17 6 41 9 55
6 28 6 158 1 205 -19 156 -120 347 -240 454 -16 14 -39 36 -52 49 -13 12 -28
22 -34 22 -5 0 -10 4 -10 8 0 4 -34 25 -75 47 -45 23 -72 42 -68 49 4 6 27 36
50 66 24 30 47 60 51 65 24 31 88 174 98 218 2 9 6 27 9 40 32 130 26 321 -12
417 -3 8 -7 20 -9 27 -3 15 -46 105 -74 154 -11 20 -38 55 -59 78 -21 22 -36
41 -34 41 10 0 -115 98 -147 116 -19 10 -37 21 -40 24 -10 10 -87 45 -125 56
-78 23 -134 35 -194 39 -40 2 -76 7 -81 10 -5 3 -2 24 6 47 27 77 37 145 36
258 0 275 -128 517 -345 658 -101 65 -188 97 -317 118 -14 2 -61 3 -105 3 -84
-1 -253 2 -319 4 -36 2 -40 4 -42 32 -2 34 -37 143 -62 195 -9 19 -16 38 -17
42 0 4 -6 13 -12 19 -7 7 -13 19 -13 26 0 7 -4 13 -10 13 -5 0 -10 5 -10 11 0
34 -202 239 -236 239 -7 0 -14 3 -16 8 -4 10 -125 68 -163 77 -16 5 -34 9 -40
11 -52 15 -103 18 -320 18 -267 0 -283 -2 -403 -39 -7 -3 -14 -5 -17 -5 -2 0
-38 -18 -79 -39 l-73 -39 -44 47 c-128 135 -297 224 -474 247 -49 6 -77 6
-237 0 -43 -1 -78 0 -78 3 0 8 -100 7 -113 -1z"/>
</g>
</svg>
