<?xml version="1.0" encoding="UTF-8"?>
<svg id="Layer_1" data-name="Layer 1" xmlns="http://www.w3.org/2000/svg" xmlns:xlink="http://www.w3.org/1999/xlink" version="1.1" viewBox="0 0 205.3 200">
  <defs>
    <style>
      .cls-1 {
        clip-path: url(#clippath);
      }

      .cls-2 {
        fill: none;
      }

      .cls-2, .cls-3, .cls-4, .cls-5, .cls-6 {
        stroke-width: 0px;
      }

      .cls-3 {
        fill: #4c97ec;
      }

      .cls-4 {
        fill: #53c9ee;
      }

      .cls-7 {
        clip-path: url(#clippath-1);
      }

      .cls-8 {
        clip-path: url(#clippath-4);
      }

      .cls-9 {
        clip-path: url(#clippath-3);
      }

      .cls-10 {
        clip-path: url(#clippath-2);
      }

      .cls-11 {
        clip-path: url(#clippath-5);
      }

      .cls-5 {
        fill: #daee68;
      }

      .cls-6 {
        fill: #f42d85;
      }
    </style>
    <clipPath id="clippath">
      <rect class="cls-2" x="8" width="197.3" height="200"/>
    </clipPath>
    <clipPath id="clippath-1">
      <rect class="cls-2" x="6.7" y=".6" width="200" height="200" transform="translate(-23.4 32.9) rotate(-15.8)"/>
    </clipPath>
    <clipPath id="clippath-2">
      <rect class="cls-2" x="6.7" y=".6" width="200" height="200" transform="translate(-23.4 32.9) rotate(-15.8)"/>
    </clipPath>
    <clipPath id="clippath-3">
      <rect class="cls-2" width="198.7" height="200"/>
    </clipPath>
    <clipPath id="clippath-4">
      <rect class="cls-2" x="-.2" y=".6" width="200" height="200" transform="translate(-23.7 31.1) rotate(-15.8)"/>
    </clipPath>
    <clipPath id="clippath-5">
      <rect class="cls-2" x="-.2" y=".6" width="200" height="200" transform="translate(-23.7 31.1) rotate(-15.8)"/>
    </clipPath>
  </defs>
  <g class="cls-1">
    <g class="cls-7">
      <g class="cls-10">
        <path class="cls-3" d="M192.6,84.3c6.4-6.5,8.2-16.4,3.6-24.3-3.7-6.4-10.5-9.8-17.7-9.7,3.2-8.6.8-18.4-6.5-23.7-5.9-4.3-13.6-4.7-20.1-1.7-.5-9.2-6.7-17.1-15.6-19-7.2-1.5-14.3,1.3-19,6.7-4.2-8.2-13.1-12.9-21.9-11-7.2,1.5-12.6,7-14.6,13.8-7.2-5.8-17.2-6.5-24.5-1.1-5.9,4.3-8.6,11.5-7.7,18.6-8.9-2.3-18.3,1.1-22.8,9-3.7,6.4-3.2,14,.5,20.2-9.1,1.5-16.3,8.4-17.2,17.5-.8,7.3,2.8,14.1,8.6,18.3-7.7,5-11.4,14.4-8.6,23,2.3,7,8.3,11.8,15.3,13.2-4.9,7.7-4.6,17.8,1.5,24.6,4.9,5.5,12.3,7.4,19.3,5.8-1.4,9.1,3,18.1,11.3,21.9,6.7,3,14.3,1.8,20-2.6,2.4,8.9,10.1,15.4,19.2,15.4,7.3,0,13.7-4.2,17.2-10.5,5.8,7.1,15.4,9.9,23.8,6.2,6.4-2.9,10.5-8.9,11.3-15.7.3-.2.6-.3,1-.5,8,3.6,17.5,2.1,23.3-4.4,4.7-5.3,6-12.5,3.9-19.2.2-.2.3-.4.5-.7,8.9.1,17-5.1,19.8-13.6,2.3-7,.2-14.4-4.7-19.7,8.5-3.3,14.2-11.7,13.2-20.7-.8-7.3-5.6-13.3-12.2-16.1"/>
      </g>
    </g>
  </g>
  <g class="cls-9">
    <g class="cls-8">
      <g class="cls-11">
        <path class="cls-4" d="M185.7,84.3c6.4-6.5,8.2-16.4,3.6-24.3-3.7-6.4-10.5-9.8-17.7-9.7,3.2-8.6.8-18.4-6.5-23.7-5.9-4.3-13.6-4.7-20.1-1.7-.5-9.2-6.7-17.1-15.6-19-7.2-1.5-14.3,1.3-19,6.7-4.2-8.2-13.1-12.9-22-11-7.2,1.5-12.5,7-14.6,13.8-7.2-5.8-17.2-6.5-24.5-1.1-5.9,4.3-8.6,11.5-7.7,18.6-8.9-2.3-18.3,1.1-22.8,9-3.7,6.4-3.2,14,.5,20.2-9,1.5-16.3,8.4-17.2,17.5-.8,7.3,2.8,14.1,8.6,18.3-7.7,5-11.4,14.4-8.6,23,2.3,7,8.3,11.8,15.3,13.2-5,7.7-4.6,17.8,1.5,24.6,4.9,5.5,12.3,7.4,19.3,5.8-1.4,9.1,3,18.1,11.3,21.9,6.7,3,14.3,1.8,20-2.6,2.4,8.9,10.1,15.4,19.2,15.4,7.3,0,13.7-4.2,17.2-10.5,5.8,7.1,15.4,9.9,23.8,6.2,6.4-2.9,10.5-8.9,11.3-15.7.3-.2.6-.3,1-.5,8,3.6,17.5,2.1,23.3-4.4,4.7-5.3,6-12.5,3.9-19.2.2-.2.3-.4.5-.7,8.9.1,17-5.1,19.8-13.6,2.3-7,.2-14.4-4.7-19.7,8.5-3.3,14.2-11.7,13.2-20.7-.8-7.3-5.6-13.3-12.2-16.1"/>
      </g>
    </g>
  </g>
  <path class="cls-5" d="M55.4,124.7l1.4,8.8,15.4-2.4,1,6.1-15.4,2.4,1.9,12.1-7.7,1.2-5.3-33.2,25.1-4,1,6.2-17.4,2.8Z"/>
  <path class="cls-5" d="M107,137.9l1,6.2-25.7,4.1-5.3-33.2,25.1-4,1,6.2-17.5,2.8,1.1,7.2,15.4-2.4.9,6-15.4,2.4,1.2,7.7,18.1-2.9Z"/>
  <path class="cls-5" d="M125.1,141.9c-2.6.4-5.2.5-7.8.1-2.6-.3-4.7-.9-6.3-1.9l1.7-6.2c1.6.8,3.4,1.4,5.5,1.7,2.1.3,4.1.3,6,0,2.2-.3,3.7-.9,4.7-1.7.9-.8,1.3-1.8,1.2-2.8-.1-.8-.5-1.4-1.2-1.8-.7-.4-1.6-.7-2.6-.9-1-.2-2.4-.3-4.1-.5-2.6-.2-4.8-.5-6.5-.8-1.7-.3-3.2-1.1-4.6-2.3-1.4-1.2-2.2-2.8-2.6-5-.3-1.9,0-3.8.8-5.5.8-1.7,2.2-3.2,4.1-4.5,2-1.3,4.4-2.1,7.5-2.6,2.1-.3,4.3-.4,6.4-.2,2.1.2,4,.6,5.6,1.3l-1.4,6.2c-3.3-1.3-6.5-1.7-9.6-1.2-2.2.3-3.7,1-4.6,1.8-.9.8-1.3,1.8-1.1,3,.2,1.1.9,1.9,2.2,2.3,1.3.4,3.2.6,5.7.8,2.6.2,4.8.5,6.5.8,1.7.3,3.2,1.1,4.6,2.2,1.4,1.1,2.2,2.8,2.6,5,.3,1.9,0,3.7-.8,5.4-.8,1.7-2.2,3.2-4.2,4.5-2,1.3-4.5,2.1-7.5,2.6Z"/>
  <path class="cls-5" d="M147,110.3l-10.6,1.7-1-6.3,28.9-4.6,1,6.3-10.6,1.7,4.3,26.9-7.7,1.2-4.3-26.9Z"/>
  <path class="cls-6" d="M46.5,79.3l1.6,10.2,17.9-2.8,1.1,7.2-17.9,2.8,2.2,14.1-9,1.4-6.1-38.7,29.3-4.6,1.1,7.2-20.3,3.2Z"/>
  <path class="cls-6" d="M96.7,104.3c-4,.6-7.8.3-11.3-.9-3.5-1.2-6.4-3.2-8.7-6-2.3-2.8-3.8-6-4.4-9.8-.6-3.8-.2-7.4,1.1-10.7,1.3-3.3,3.5-6.1,6.4-8.4,3-2.3,6.4-3.7,10.5-4.3,4-.6,7.8-.3,11.3.9,3.5,1.2,6.4,3.2,8.7,6,2.3,2.8,3.8,6,4.4,9.8.6,3.8.2,7.4-1.1,10.7-1.3,3.3-3.5,6.1-6.4,8.4-2.9,2.2-6.4,3.7-10.4,4.3ZM95.5,96.7c2.3-.4,4.3-1.2,6-2.5,1.7-1.3,2.9-3,3.6-5.1.8-2.1.9-4.3.6-6.7-.4-2.4-1.2-4.5-2.6-6.2-1.3-1.7-3-3-5-3.7-2-.8-4.2-1-6.5-.6-2.3.4-4.3,1.2-5.9,2.6-1.7,1.3-2.9,3-3.6,5.1-.8,2-.9,4.3-.6,6.7.4,2.4,1.2,4.4,2.6,6.2,1.3,1.7,3,2.9,5,3.7,2,.8,4.2.9,6.4.6Z"/>
  <path class="cls-6" d="M143.4,97c-4,.6-7.8.3-11.3-.9-3.5-1.2-6.4-3.2-8.7-6-2.3-2.8-3.8-6-4.4-9.8-.6-3.8-.2-7.4,1.1-10.7,1.3-3.3,3.5-6.1,6.4-8.4,3-2.3,6.4-3.7,10.5-4.3,4-.6,7.8-.3,11.3.9,3.5,1.2,6.4,3.2,8.7,6,2.3,2.8,3.8,6,4.4,9.8.6,3.8.2,7.4-1.1,10.7-1.3,3.3-3.5,6.1-6.4,8.4-2.9,2.2-6.4,3.7-10.4,4.3ZM142.2,89.3c2.3-.4,4.3-1.2,6-2.5,1.7-1.3,2.9-3,3.6-5.1.8-2.1.9-4.3.6-6.7-.4-2.4-1.2-4.5-2.6-6.2-1.3-1.7-3-3-5-3.7-2-.8-4.2-1-6.5-.6-2.3.4-4.3,1.2-5.9,2.6-1.7,1.3-2.9,3-3.6,5.1-.8,2-.9,4.3-.6,6.7.4,2.4,1.2,4.4,2.6,6.2,1.3,1.7,3,2.9,5,3.7,2,.8,4.2.9,6.4.6Z"/>
</svg>